<svg width="56" height="56" viewBox="0 0 56 56" fill="none" xmlns="http://www.w3.org/2000/svg">
<rect width="56" height="56" rx="28" fill="#00A99D"/>
<path d="M18.65 22.35C18.65 24.7406 20.5094 26.6 22.9 26.6C25.2375 26.6 27.15 24.7406 27.15 22.35V21.5H18.65V22.35ZM18.5969 15.7625H18.65C19.1812 16.1344 19.8719 16.1875 20.4562 15.8687L22.1031 14.9125C22.3156 14.8062 22.5812 14.7 22.9 14.7C23.1656 14.7 23.4312 14.8062 23.6437 14.9125L25.2906 15.8687C25.875 16.1875 26.5656 16.1344 27.15 15.7625V15.7094C27.15 15.7094 27.15 15.7094 27.2031 15.7094L27.3625 15.55L28.1594 14.9125C28.3187 14.8062 28.5312 14.7 28.6906 14.7H28.85C29.275 14.7 29.7 15.125 29.7 15.55V16.7719V16.9844V22.35C29.7 26.1219 26.6187 29.15 22.9 29.15C19.1281 29.15 16.1 26.1219 16.1 22.35V16.9844V16.7719V15.55C16.1 15.125 16.4719 14.7 16.95 14.7H17.0562C17.2687 14.7 17.4281 14.8062 17.5875 14.9125L18.4375 15.55L18.5969 15.7094C18.5969 15.7094 18.5969 15.7094 18.5969 15.7625ZM19.925 30.85H25.875C30.7625 30.85 34.8 34.8875 34.8 39.775V40.2C34.8 41.1563 34.0031 41.9 33.1 41.9H12.7C11.7437 41.9 11 41.1563 11 40.2V39.775C11 34.8875 14.9844 30.85 19.925 30.85ZM33.95 28.3C32.4625 28.3 31.1344 27.7687 30.0719 26.9187C30.0719 26.8656 30.125 26.8125 30.125 26.7594C30.7625 25.75 31.1875 24.5281 31.3469 23.2C31.3469 22.9344 31.4 22.6687 31.4 22.35V16.9844C32.1437 16.6125 32.9937 16.4 33.95 16.4C37.1906 16.4 39.9 19.1094 39.9 22.35C39.9 25.6437 37.1906 28.3 33.95 28.3ZM36.0219 41.9C36.2875 41.4219 36.5 40.8375 36.5 40.2V39.775C36.5 36.5875 35.0125 33.6656 32.7812 31.7531C32.8875 31.7531 32.9937 31.7 33.1531 31.7H36.3937C41.1219 31.7 45 35.5781 44.9469 40.3063C44.9469 41.2094 44.2562 41.9 43.3531 41.9H36.0219Z" fill="#EFFEFB"/>
</svg>
