<svg width="15" height="15" viewBox="0 0 15 15" fill="none" xmlns="http://www.w3.org/2000/svg">
<path fill-rule="evenodd" clip-rule="evenodd" d="M0.125 3.125C0.125 1.46815 1.46815 0.125 3.125 0.125H11.875C13.5319 0.125 14.875 1.46815 14.875 3.125V11.875C14.875 13.5319 13.5319 14.875 11.875 14.875H3.125C1.46815 14.875 0.125 13.5319 0.125 11.875V3.125ZM3.125 2.125C2.57272 2.125 2.125 2.57272 2.125 3.125V11.875C2.125 12.4273 2.57272 12.875 3.125 12.875H11.875C12.4273 12.875 12.875 12.4273 12.875 11.875V3.125C12.875 2.57272 12.4273 2.125 11.875 2.125H3.125ZM11.0091 4.63785C11.4162 5.01104 11.4437 5.64361 11.0705 6.05072L7.17465 10.3007C6.98524 10.5074 6.71781 10.625 6.4375 10.625C6.15719 10.625 5.88976 10.5074 5.70035 10.3007L3.92951 8.36891C3.55632 7.96179 3.58382 7.32922 3.99094 6.95603C4.39806 6.58284 5.03063 6.61034 5.40382 7.01746L6.4375 8.14511L9.59618 4.69928C9.96937 4.29216 10.6019 4.26465 11.0091 4.63785Z" fill="#04C8B6"/>
</svg>
