<svg width="24" height="25" viewBox="0 0 24 25" fill="none" xmlns="http://www.w3.org/2000/svg">
<rect y="0.0297852" width="24" height="24" rx="8" fill="#FDF2F9"/>
<path d="M7 5.02979V5.52979L9.15625 4.99854C10.3438 4.71729 11.5938 4.84229 12.6875 5.40479C14.125 6.12354 15.8438 6.12354 17.2812 5.40479L17.5938 5.24854C18.2188 4.90479 19 5.37354 19 6.09229V13.8423C19 14.2798 18.7188 14.6235 18.3438 14.7798L17.25 15.186C15.8125 15.7485 14.2188 15.6548 12.8125 14.9673C11.625 14.3735 10.2812 14.2173 9 14.5298L7 15.0298V19.0298C7 19.5923 6.53125 20.0298 6 20.0298C5.4375 20.0298 5 19.5923 5 19.0298V15.5298V6.02979V5.02979C5 4.49854 5.4375 4.02979 6 4.02979C6.53125 4.02979 7 4.49854 7 5.02979Z" fill="#F44AB0"/>
</svg>
