<svg width="24" height="24" viewBox="0 0 24 24" fill="none" xmlns="http://www.w3.org/2000/svg">
<rect width="24" height="24" rx="8" fill="#2A303C"/>
<path d="M7 5V5.5L9.15625 4.96875C10.3438 4.6875 11.5938 4.8125 12.6875 5.375C14.125 6.09375 15.8438 6.09375 17.2812 5.375L17.5938 5.21875C18.2188 4.875 19 5.34375 19 6.0625V13.8125C19 14.25 18.7188 14.5938 18.3438 14.75L17.25 15.1562C15.8125 15.7188 14.2188 15.625 12.8125 14.9375C11.625 14.3438 10.2812 14.1875 9 14.5L7 15V19C7 19.5625 6.53125 20 6 20C5.4375 20 5 19.5625 5 19V15.5V6V5C5 4.46875 5.4375 4 6 4C6.53125 4 7 4.46875 7 5Z" fill="white"/>
</svg>
