<svg width="24" height="25" viewBox="0 0 24 25" fill="none" xmlns="http://www.w3.org/2000/svg">
<rect y="0.0302734" width="24" height="24" rx="8" fill="#1D781F"/>
<path d="M7 5.03027V5.53027L9.15625 4.99902C10.3438 4.71777 11.5938 4.84277 12.6875 5.40527C14.125 6.12402 15.8438 6.12402 17.2812 5.40527L17.5938 5.24902C18.2188 4.90527 19 5.37402 19 6.09277V13.8428C19 14.2803 18.7188 14.624 18.3438 14.7803L17.25 15.1865C15.8125 15.749 14.2188 15.6553 12.8125 14.9678C11.625 14.374 10.2812 14.2178 9 14.5303L7 15.0303V19.0303C7 19.5928 6.53125 20.0303 6 20.0303C5.4375 20.0303 5 19.5928 5 19.0303V15.5303V6.03027V5.03027C5 4.49902 5.4375 4.03027 6 4.03027C6.53125 4.03027 7 4.49902 7 5.03027Z" fill="#6EDA6F"/>
</svg>
