<svg width="24" height="25" viewBox="0 0 24 25" fill="none" xmlns="http://www.w3.org/2000/svg">
<rect y="0.0292969" width="24" height="24" rx="8" fill="#475314"/>
<path d="M7 5.0293V5.5293L9.15625 4.99805C10.3438 4.7168 11.5938 4.8418 12.6875 5.4043C14.125 6.12305 15.8438 6.12305 17.2812 5.4043L17.5938 5.24805C18.2188 4.9043 19 5.37305 19 6.0918V13.8418C19 14.2793 18.7188 14.623 18.3438 14.7793L17.25 15.1855C15.8125 15.748 14.2188 15.6543 12.8125 14.9668C11.625 14.373 10.2812 14.2168 9 14.5293L7 15.0293V19.0293C7 19.5918 6.53125 20.0293 6 20.0293C5.4375 20.0293 5 19.5918 5 19.0293V15.5293V6.0293V5.0293C5 4.49805 5.4375 4.0293 6 4.0293C6.53125 4.0293 7 4.49805 7 5.0293Z" fill="#C8E217"/>
</svg>
