<svg width="56" height="56" viewBox="0 0 56 56" fill="none" xmlns="http://www.w3.org/2000/svg">
<rect width="56" height="56" rx="28" fill="#00A99D"/>
<path d="M28 14.7C29.9125 14.7 31.6125 15.8156 32.4625 17.4625C34.2156 16.8781 36.2344 17.3031 37.6157 18.6844C38.9969 20.0656 39.4219 22.0844 38.8375 23.8375C40.4844 24.6875 41.6 26.3875 41.6 28.3C41.6 30.2656 40.4844 31.9656 38.8375 32.8156C39.4219 34.5687 38.9969 36.5344 37.6157 37.9156C36.2344 39.2969 34.2156 39.7219 32.4625 39.1906C31.6125 40.8375 29.9125 41.9 28 41.9C26.0344 41.9 24.3344 40.8375 23.4844 39.1906C21.7313 39.7219 19.7656 39.2969 18.3844 37.9156C17.0031 36.5344 16.5781 34.5687 17.1094 32.8156C15.4625 31.9656 14.4 30.2656 14.4 28.3C14.4 26.3875 15.4625 24.6875 17.1094 23.8375C16.5781 22.0844 17.0031 20.0656 18.3844 18.6844C19.7656 17.3031 21.7313 16.8781 23.4844 17.4625C24.3344 15.8156 26.0344 14.7 28 14.7ZM34.0031 25.8031C34.4813 25.325 34.4813 24.5281 34.0031 24.05C33.4719 23.5187 32.675 23.5187 32.1969 24.05L26.3 29.9469L23.8031 27.45C23.2719 26.9187 22.475 26.9187 21.9969 27.45C21.4656 27.9281 21.4656 28.725 21.9969 29.2031L25.3969 32.6031C25.875 33.1344 26.6719 33.1344 27.2031 32.6031L34.0031 25.8031Z" fill="#EFFEFB"/>
</svg>
