<svg width="168" height="56" viewBox="0 0 168 56" fill="none" xmlns="http://www.w3.org/2000/svg">
<path d="M56.8209 1.94455H57.789C57.8244 1.94455 57.8509 1.96215 57.8642 1.99294L60.0039 6.7619C60.0348 6.82789 60.1276 6.82789 60.1586 6.7619L62.3071 1.99294C62.3204 1.96215 62.3513 1.94455 62.3823 1.94455H63.3504C63.399 1.94455 63.4344 1.98414 63.4344 2.02814V8.13451C63.4344 8.1829 63.3946 8.2181 63.3504 8.2181H62.5149C62.4663 8.2181 62.4309 8.1785 62.4309 8.13451V3.88909H62.3867L60.4725 8.1697C60.4592 8.2005 60.4283 8.2181 60.3973 8.2181H59.7607C59.7253 8.2181 59.6988 8.2005 59.6811 8.1697L57.7758 3.88909H57.7316V8.13451C57.7316 8.1829 57.6918 8.2181 57.6476 8.2181H56.812C56.7634 8.2181 56.728 8.1785 56.728 8.13451V2.02814C56.728 1.97974 56.7678 1.94455 56.812 1.94455H56.8209Z" fill="#363636"/>
<path d="M68.0454 1.94454H71.3566C71.4052 1.94454 71.4406 1.98413 71.4406 2.02812V2.78922C71.4406 2.83761 71.4008 2.87281 71.3566 2.87281H69.0489C69.0003 2.87281 68.9649 2.9124 68.9649 2.9564V4.52699C68.9649 4.57538 69.0047 4.61057 69.0489 4.61057H70.9764C71.025 4.61057 71.0604 4.65017 71.0604 4.69416V5.42886C71.0604 5.47726 71.0206 5.51245 70.9764 5.51245H69.0489C69.0003 5.51245 68.9649 5.55205 68.9649 5.59604V7.20182C68.9649 7.25022 69.0047 7.28541 69.0489 7.28541H71.4361C71.4848 7.28541 71.5201 7.32501 71.5201 7.369V8.1301C71.5201 8.17849 71.4803 8.21369 71.4361 8.21369H68.0454C67.9967 8.21369 67.9614 8.17409 67.9614 8.1301V2.02812C67.9614 1.97973 68.0012 1.94454 68.0454 1.94454ZM70.3088 0H70.9233C70.9896 0 71.0294 0.0747898 70.994 0.127583L70.2204 1.33742C70.2027 1.36381 70.1762 1.37701 70.1497 1.37701H69.5573C69.491 1.37701 69.4512 1.30662 69.4865 1.24943L70.2337 0.0395946C70.2469 0.0131982 70.2779 0 70.3044 0L70.3088 0Z" fill="#363636"/>
<path d="M77.1875 2.87282H75.7684C75.7198 2.87282 75.6844 2.83323 75.6844 2.78923V2.02814C75.6844 1.97974 75.7242 1.94455 75.7684 1.94455H79.7826C79.8312 1.94455 79.8665 1.98414 79.8665 2.02814V2.78923C79.8665 2.83763 79.8268 2.87282 79.7826 2.87282H78.3635C78.3148 2.87282 78.2795 2.91242 78.2795 2.95641V8.13451C78.2795 8.1829 78.2397 8.2181 78.1955 8.2181H77.3599C77.3113 8.2181 77.2759 8.1785 77.2759 8.13451V2.95641C77.2759 2.90802 77.2362 2.87282 77.1919 2.87282H77.1875Z" fill="#363636"/>
<path d="M83.6287 5.0813C83.6287 3.15436 85.1096 1.85654 86.8514 1.85654C88.5932 1.85654 90.0742 3.15436 90.0742 5.0813C90.0742 7.00824 88.5844 8.30606 86.8514 8.30606C85.1185 8.30606 83.6287 7.00824 83.6287 5.0813ZM86.8514 7.35139C88.023 7.35139 89.0442 6.45831 89.0442 5.0813C89.0442 3.70429 88.023 2.81121 86.8514 2.81121C85.6799 2.81121 84.6587 3.70429 84.6587 5.0813C84.6587 6.45831 85.6799 7.35139 86.8514 7.35139Z" fill="#363636"/>
<path d="M94.5172 2.02814C94.5172 1.97974 94.557 1.94455 94.6012 1.94455H96.6127C98.4075 1.94455 99.6852 3.22478 99.6852 5.08132C99.6852 6.93787 98.4075 8.2181 96.6127 8.2181H94.6012C94.5526 8.2181 94.5172 8.1785 94.5172 8.13451V2.02814ZM96.5773 7.27223C97.9168 7.27223 98.6463 6.38795 98.6463 5.08132C98.6463 3.7747 97.9168 2.89042 96.5773 2.89042H95.6047C95.5561 2.89042 95.5207 2.93002 95.5207 2.97401V7.18864C95.5207 7.23703 95.5605 7.27223 95.6047 7.27223H96.5773Z" fill="#363636"/>
<path d="M103.938 5.0813C103.938 3.15436 105.419 1.85654 107.161 1.85654C108.903 1.85654 110.384 3.15436 110.384 5.0813C110.384 7.00824 108.894 8.30606 107.161 8.30606C105.428 8.30606 103.938 7.00824 103.938 5.0813ZM107.161 7.35139C108.332 7.35139 109.353 6.45831 109.353 5.0813C109.353 3.70429 108.332 2.81121 107.161 2.81121C105.989 2.81121 104.968 3.70429 104.968 5.0813C104.968 6.45831 105.989 7.35139 107.161 7.35139Z" fill="#363636"/>
<path d="M18.289 16.8101H13.793C13.5764 16.8101 13.3863 16.9421 13.3067 17.1445L10.0442 25.9961C9.87617 26.4404 9.244 26.4404 9.07601 25.9961L5.78692 17.1445C5.71176 16.9465 5.51724 16.8101 5.30505 16.8101H0.80023C0.433301 16.8101 0.181315 17.1841 0.322781 17.5228L6.83465 33.6906C6.91422 33.8842 7.10432 34.0074 7.3121 34.0074H11.7727C11.9849 34.0074 12.1706 33.8842 12.2502 33.6906L18.762 17.5228C18.9035 17.1841 18.6559 16.8101 18.2846 16.8101H18.289Z" fill="#363636"/>
<path d="M27.5506 16.8101C23.227 16.8101 19.0051 19.8369 19.0051 25.4417C19.0051 28.7413 20.5347 31.1874 22.7761 32.604C23.8946 32.1288 25.181 31.8649 26.5824 31.8649C28.7088 31.8649 30.3666 32.4764 31.6266 33.2903C32.7318 32.8327 33.6469 32.1772 34.3454 31.4161C34.5266 31.2182 34.5266 30.9102 34.3454 30.7122L32.524 28.7809C32.3604 28.6093 32.0952 28.5653 31.8918 28.6841C30.7866 29.344 29.6726 29.5508 28.4568 29.5508C27.0112 29.5508 25.8397 29.1724 25.0617 28.4157C24.7389 28.099 24.9865 27.5447 25.4374 27.5447H35.2693C35.5302 27.5447 35.7512 27.3555 35.7821 27.0959C36.6796 19.5993 31.7061 16.8101 27.5638 16.8101H27.5506ZM30.0837 23.66H25.0705C24.6549 23.66 24.4074 23.1849 24.6417 22.8461C25.3446 21.8562 26.4763 21.3987 27.6125 21.3987C28.7486 21.3987 29.9334 21.865 30.5346 22.8901C30.7336 23.2332 30.4772 23.6644 30.0837 23.6644V23.66Z" fill="#363636"/>
<path d="M48.1605 16.8101C46.4938 16.8101 45.1897 17.338 44.2392 18.1695C43.9253 18.4511 43.4258 18.2355 43.4258 17.8176V17.1533C43.4258 16.9641 43.271 16.8101 43.0809 16.8101H38.2313C38.0412 16.8101 37.8865 16.9641 37.8865 17.1533V33.4971C37.8865 33.7786 38.1164 34.0118 38.4037 34.0118H42.9041C43.1915 34.0118 43.4258 33.783 43.4258 33.4971V24.9006C43.4258 23.1805 44.2259 21.6847 46.0827 21.6847C47.9394 21.6847 48.8015 23.1805 48.8015 24.9006V33.4971C48.8015 33.7786 49.0314 34.0118 49.3231 34.0118H53.8235C54.1065 34.0118 54.3408 33.783 54.3408 33.4971V23.946C54.3408 18.8822 51.5247 16.8101 48.1649 16.8101H48.1605Z" fill="#363636"/>
<path d="M73.956 12.8947H69.4556C69.1727 12.8947 68.9383 13.1234 68.9383 13.4138V18.6931H68.8411C68.7129 18.4071 67.1435 16.8145 64.2302 16.8145C60.5167 16.8145 56.3567 19.6169 56.3567 25.4154C56.3567 31.2138 60.5211 34.0118 64.2302 34.0118C67.1391 34.0118 68.7085 32.4192 68.8411 32.1332H68.9383V33.4971C68.9383 33.7786 69.1682 34.0118 69.4556 34.0118H73.956C74.2433 34.0118 74.4776 33.783 74.4776 33.4971V13.4094C74.4776 13.1234 74.2478 12.8903 73.956 12.8903V12.8947ZM65.4194 29.1373C63.4963 29.1373 61.7987 27.7382 61.7987 25.411C61.7987 23.0837 63.4963 21.6847 65.4194 21.6847C67.3424 21.6847 69.0666 23.0529 69.0666 25.411C69.0666 27.769 67.4043 29.1373 65.4194 29.1373Z" fill="#363636"/>
<path d="M94.0883 16.8101H89.5879C89.3006 16.8101 89.0663 17.0389 89.0663 17.3293V18.6887H88.969C88.8408 18.4027 87.2758 16.8101 84.3581 16.8101C80.6446 16.8101 76.4846 19.6125 76.4846 25.411C76.4846 31.2094 80.6446 34.0074 84.3581 34.0074C87.2714 34.0074 88.8408 32.4148 88.969 32.1288H89.0663V33.4927C89.0663 33.7742 89.2962 34.0074 89.5879 34.0074H94.0883C94.3757 34.0074 94.61 33.7786 94.61 33.4927V17.3249C94.61 17.0389 94.3801 16.8057 94.0883 16.8057V16.8101ZM85.5473 29.1373C83.6242 29.1373 81.9311 27.7382 81.9311 25.411C81.9311 23.0837 83.6242 21.6847 85.5473 21.6847C87.4704 21.6847 89.1989 23.0529 89.1989 25.411C89.1989 27.769 87.5367 29.1373 85.5473 29.1373Z" fill="#363636"/>
<path d="M109.018 29.0537C108.673 29.1153 108.354 29.1417 108.12 29.1417C106.551 29.1417 106.104 28.1826 106.104 27.4127V22.4018C106.104 22.085 106.361 21.8254 106.679 21.8254H109.048C109.367 21.8254 109.623 21.5659 109.623 21.2491V17.3908C109.623 17.0697 109.367 16.8101 109.048 16.8101H106.679C106.361 16.8101 106.104 16.5858 106.104 16.269V13.471C106.104 13.1498 105.848 12.8903 105.529 12.8903H101.144C100.826 12.8903 100.569 13.1498 100.569 13.471V16.269C100.569 16.5858 100.313 16.8101 99.9946 16.8101H98.7082C98.3899 16.8101 98.129 17.0697 98.129 17.3908V21.2491C98.129 21.5659 98.3899 21.8254 98.7082 21.8254H99.9946C100.313 21.8254 100.569 22.085 100.569 22.4018V28.2486C100.569 32.4148 102.97 34.0162 106.299 34.0162C107.422 34.0162 108.748 33.8358 109.473 33.2859C109.61 33.1803 109.694 33.0087 109.694 32.8284V29.6256C109.694 29.2692 109.371 28.9921 109.022 29.0581L109.018 29.0537Z" fill="#363636"/>
<path d="M119.738 16.8101C115.357 16.8101 110.843 19.7709 110.843 25.411C110.843 31.051 115.357 34.0074 119.738 34.0074C124.119 34.0074 128.602 31.0466 128.602 25.411C128.602 19.7753 124.088 16.8101 119.738 16.8101ZM119.738 29.0757C117.815 29.0757 116.281 27.6107 116.281 25.411C116.281 23.2113 117.815 21.7463 119.738 21.7463C121.661 21.7463 123.164 23.2113 123.164 25.411C123.164 27.6107 121.63 29.0757 119.738 29.0757Z" fill="#363636"/>
<path d="M147.364 12.8947H142.978C142.66 12.8947 142.404 13.1542 142.404 13.471V18.6931H142.306C142.178 18.4071 140.613 16.8145 137.695 16.8145C133.982 16.8145 129.822 19.6169 129.822 25.4154C129.822 31.2138 133.982 34.0118 137.695 34.0118C140.609 34.0118 142.178 32.4192 142.306 32.1332H142.404V33.4399C142.404 33.7566 142.66 34.0118 142.978 34.0118H147.364C147.682 34.0118 147.938 33.7566 147.938 33.4399V13.471C147.938 13.1542 147.682 12.8947 147.364 12.8947ZM138.88 29.1372C136.957 29.1372 135.264 27.7382 135.264 25.411C135.264 23.0837 136.957 21.6847 138.88 21.6847C140.803 21.6847 142.532 23.0529 142.532 25.411C142.532 27.769 140.869 29.1372 138.88 29.1372Z" fill="#363636"/>
<path d="M158.853 16.8101C154.468 16.8101 149.954 19.7709 149.954 25.411C149.954 31.051 154.468 34.0074 158.853 34.0074C163.239 34.0074 167.717 31.0466 167.717 25.411C167.717 19.7753 163.204 16.8101 158.853 16.8101ZM158.853 29.0757C156.93 29.0757 155.396 27.6107 155.396 25.411C155.396 23.2113 156.935 21.7463 158.853 21.7463C160.772 21.7463 162.28 23.2113 162.28 25.411C162.28 27.6107 160.741 29.0757 158.853 29.0757Z" fill="#363636"/>
<path d="M119.641 34.8653H115.145C114.857 34.8653 114.623 35.0984 114.623 35.3844V40.6681H114.526C114.398 40.3821 112.833 38.7895 109.915 38.7895C107.93 38.7895 105.821 39.5902 104.283 41.2224C105.728 42.8766 106.484 44.9795 106.484 47.3904C106.484 49.8012 105.728 51.9042 104.283 53.5583C105.817 55.1905 107.93 55.9912 109.915 55.9912C112.828 55.9912 114.398 54.3986 114.526 54.1126H114.623V55.1553C114.623 55.4413 114.857 55.6744 115.145 55.6744H119.641C119.928 55.6744 120.162 55.4413 120.162 55.1553V35.3888C120.162 35.1028 119.933 34.8697 119.641 34.8697V34.8653ZM111.104 51.1167C109.181 51.1167 107.488 49.7176 107.488 47.3904C107.488 45.0631 109.181 43.6641 111.104 43.6641C113.027 43.6641 114.756 45.0323 114.756 47.3904C114.756 49.7484 113.094 51.1167 111.104 51.1167Z" fill="#363636"/>
<path d="M127.996 38.7895H123.5C123.213 38.7895 122.979 39.0183 122.979 39.3087V55.1509C122.979 55.4369 123.213 55.67 123.5 55.67H127.996C128.284 55.67 128.518 55.4369 128.518 55.1509V39.3087C128.518 39.0227 128.288 38.7895 127.996 38.7895ZM127.996 34.8653H123.5C123.213 34.8653 122.979 35.0984 122.979 35.3844V37.2849C122.979 37.5709 123.213 37.8041 123.5 37.8041H127.996C128.284 37.8041 128.518 37.5753 128.518 37.2849V35.3844C128.518 35.0984 128.288 34.8653 127.996 34.8653Z" fill="#363636"/>
<path d="M148.129 38.7895H143.633C143.345 38.7895 143.111 39.0183 143.111 39.3086V40.6681H143.014C142.885 40.3821 141.316 38.7895 138.403 38.7895C134.689 38.7895 130.529 41.5919 130.529 47.3904C130.529 53.1888 134.689 55.9868 138.403 55.9868C141.312 55.9868 142.881 54.3942 143.014 54.1082H143.111V55.1509C143.111 55.4369 143.341 55.67 143.633 55.67H148.129C148.416 55.67 148.65 55.4369 148.65 55.1509V39.3086C148.65 39.0227 148.416 38.7895 148.129 38.7895ZM139.592 51.1166C137.669 51.1166 135.971 49.7176 135.971 47.3904C135.971 45.0631 137.669 43.6641 139.592 43.6641C141.515 43.6641 143.239 45.0323 143.239 47.3904C143.239 49.7484 141.577 51.1166 139.592 51.1166Z" fill="#363636"/>
<path d="M18.7886 50.0872L22.4225 48.4066C22.6877 48.2834 22.9972 48.389 23.1387 48.6442C23.7885 49.8144 24.792 50.9583 26.5471 50.9583C27.8601 50.9583 29.0449 50.3204 29.0449 48.7938C29.0449 47.7115 28.5321 47.1704 26.5162 46.3741L25.1059 45.833C22.1617 44.6539 19.1864 43.0306 19.1864 39.1767C19.1864 35.3228 22.5772 32.7448 26.5781 32.7448C30.3402 32.7448 32.7628 34.8785 33.9829 37.1046C34.1288 37.3685 34.0316 37.6985 33.7707 37.8481L30.5214 39.687C30.2694 39.8278 29.9556 39.753 29.792 39.5154C28.8725 38.1824 27.8778 37.6809 26.8035 37.6809C25.6187 37.6809 24.7213 38.1912 24.7213 39.2735C24.7213 40.1006 25.2032 40.7693 27.5064 41.6623L29.0449 42.2695C33.2358 43.9588 34.9025 45.8374 34.9025 48.8642C34.9025 53.7387 30.517 56 26.6444 56C22.7717 56 19.5534 53.8399 18.4968 50.7779C18.404 50.5095 18.5277 50.2192 18.7886 50.1004V50.0872Z" fill="#00A99D"/>
<path d="M36.1182 47.386C36.1182 41.5876 40.2782 38.7852 43.9916 38.7852C46.905 38.7852 48.4744 40.3777 48.6026 40.6637H48.6998V39.3307C48.6998 39.0271 48.9474 38.7808 49.2524 38.7808H53.6865C53.9915 38.7808 54.2391 39.0271 54.2391 39.3307V55.1157C54.2391 55.4193 53.9915 55.6657 53.6865 55.6657H49.2524C48.9474 55.6657 48.6998 55.4193 48.6998 55.1157V54.1039H48.6026C48.4744 54.3898 46.905 55.9824 43.9916 55.9824C40.2782 55.9824 36.1182 53.18 36.1182 47.3816V47.386ZM45.1764 51.1123C47.1614 51.1123 48.8236 49.7441 48.8236 47.386C48.8236 45.0279 47.1614 43.6597 45.1764 43.6597C43.1915 43.6597 41.5602 45.0631 41.5602 47.386C41.5602 49.7089 43.2578 51.1123 45.1764 51.1123Z" fill="#00A99D"/>
<path d="M57.6034 38.7895H62.0375C62.3425 38.7895 62.5901 39.0359 62.5901 39.3394V39.8102C62.5901 40.2281 63.0852 40.4393 63.3991 40.1621C64.3496 39.3262 65.6581 38.7939 67.3292 38.7939C70.689 38.7939 73.5051 40.866 73.5051 45.9298V55.1289C73.5051 55.4325 73.2575 55.6788 72.9525 55.6788H68.5184C68.2134 55.6788 67.9658 55.4325 67.9658 55.1289V46.8844C67.9658 45.1643 67.1347 43.6685 65.247 43.6685C63.3593 43.6685 62.5901 45.1643 62.5901 46.8844V55.1289C62.5901 55.4325 62.3425 55.6788 62.0375 55.6788H57.6034C57.2983 55.6788 57.0508 55.4325 57.0508 55.1289V39.3438C57.0508 39.0403 57.2983 38.7939 57.6034 38.7939V38.7895Z" fill="#00A99D"/>
<path d="M77.5677 50.1268V43.9852C77.5677 43.6817 77.3202 43.4353 77.0151 43.4353H75.5872C75.2822 43.4353 75.0346 43.1889 75.0346 42.8854V39.3439C75.0346 39.0403 75.2822 38.7939 75.5872 38.7939H77.0151C77.3202 38.7939 77.5677 38.5476 77.5677 38.244V35.4108C77.5677 35.1072 77.8153 34.8609 78.1203 34.8609H82.5544C82.8595 34.8609 83.107 35.1072 83.107 35.4108V38.244C83.107 38.5476 83.3546 38.7939 83.6596 38.7939H86.0778C86.3829 38.7939 86.6304 39.0403 86.6304 39.3439V42.8854C86.6304 43.1889 86.3829 43.4353 86.0778 43.4353H83.6596C83.3546 43.4353 83.107 43.6817 83.107 43.9852V49.2997C83.107 50.0652 83.5535 51.0199 85.1229 51.0199C85.3616 51.0199 85.6888 50.9935 86.0425 50.9275C86.3961 50.8615 86.6923 51.1299 86.6923 51.473V54.6934C86.6923 54.8606 86.6172 55.0233 86.4801 55.1289C85.7595 55.6788 84.4244 55.8636 83.2971 55.8636C79.9682 55.8636 77.5677 54.271 77.5677 50.1312V50.1268Z" fill="#00A99D"/>
<path d="M87.8462 47.386C87.8462 41.7459 92.3598 38.7851 96.7453 38.7851C101.131 38.7851 105.609 41.7459 105.609 47.386C105.609 53.026 101.095 55.9868 96.7453 55.9868C92.3952 55.9868 87.8462 53.026 87.8462 47.386ZM96.7453 51.0507C98.633 51.0507 100.171 49.5857 100.171 47.386C100.171 45.1863 98.633 43.7213 96.7453 43.7213C94.8576 43.7213 93.2882 45.1863 93.2882 47.386C93.2882 49.5857 94.8267 51.0507 96.7453 51.0507Z" fill="#00A99D"/>
</svg>
