<svg width="30" height="30" viewBox="0 0 30 30" fill="none" xmlns="http://www.w3.org/2000/svg">
<path d="M7.5 3H22.5C22.5 4.07812 22.4531 5.0625 22.4062 6H27.375H28.5V7.125C28.5 13.4531 25.1719 16.875 21.8906 18.7031C20.2969 19.5469 18.6562 20.0625 17.4844 20.3438C17.2031 20.3906 16.9688 20.4375 16.7344 20.4844C16.6406 20.5312 16.5469 20.5781 16.5 20.5781V24.0469H19.875H21V25.1719V25.9219V27.0469H19.875H10.125H9V25.9219V25.1719V24.0469H10.125H13.5V20.5781C13.4062 20.5781 13.3125 20.5312 13.2656 20.4844C13.0312 20.4375 12.75 20.3906 12.4688 20.3438C11.2969 20.0625 9.70312 19.5469 8.0625 18.7031C4.78125 16.875 1.5 13.4531 1.5 7.125V6H2.625H7.54688C7.5 5.0625 7.5 4.07812 7.5 3ZM3.75 8.25C4.125 12.8438 6.60938 15.3281 9.14062 16.6875C9.46875 16.875 9.84375 17.0625 10.1719 17.2031C9.09375 15.3281 8.15625 12.5156 7.73438 8.25H3.75ZM20.8125 16.6875C23.3438 15.3281 25.8281 12.8438 26.2031 8.25H22.2188C21.7969 12.5156 20.8594 15.3281 19.7812 17.2031C20.1562 17.0625 20.4844 16.875 20.8125 16.6875ZM16.3125 9.09375L15 6.375L13.6406 9.09375L10.6875 9.51562L12.8438 11.5781L12.3281 14.5312L15 13.125L17.625 14.5312L17.1094 11.5781L19.2656 9.51562L16.3125 9.09375Z" fill="#00A99D"/>
</svg>
