<svg width="56" height="56" viewBox="0 0 56 56" fill="none" xmlns="http://www.w3.org/2000/svg">
<rect width="56" height="56" rx="28" fill="#00A99D"/>
<path d="M11 18.1C11 16.2406 12.4875 14.7 14.4 14.7H29.7C31.5594 14.7 33.1 16.2406 33.1 18.1V28.3C33.1 30.2125 31.5594 31.7 29.7 31.7H21.7313L17.4281 34.9406C17.1625 35.1531 16.8438 35.1531 16.525 35.0469C16.2594 34.8875 16.1 34.6219 16.1 34.25V31.7H14.4C12.4875 31.7 11 30.2125 11 28.3V18.1ZM24.6 33.4H29.7C32.5157 33.4 34.8 31.1156 34.8 28.3V21.5H41.6C43.4594 21.5 45 23.0406 45 24.9V35.1C45 37.0125 43.4594 38.5 41.6 38.5H39.9V41.05C39.9 41.4219 39.6875 41.6875 39.4219 41.8469C39.1032 41.9531 38.7844 41.9531 38.5188 41.7406L34.2157 38.5H28C26.0875 38.5 24.6 37.0125 24.6 35.1V33.4ZM18.225 19.6406L18.1719 19.6937C18.0125 20.225 18.2781 20.8625 18.8625 21.0219C19.3938 21.2344 19.9782 20.9687 20.1907 20.3844V20.3312C20.2438 20.1719 20.4032 20.1187 20.5625 20.1187H23.1125C23.4844 20.1187 23.8032 20.3844 23.8032 20.7562C23.8032 21.0219 23.6438 21.2344 23.4844 21.3406L21.5188 22.5094C21.1469 22.6687 20.9875 23.0406 20.9875 23.4125V23.9969C20.9875 24.5812 21.4657 25.0594 22.05 25.0594C22.5813 25.0594 23.0594 24.5812 23.1125 23.9969L24.4938 23.2C25.3969 22.7219 25.9282 21.7656 25.9282 20.7562C25.9282 19.2156 24.6532 17.9937 23.1125 17.9937H20.5625C19.5 17.9937 18.5438 18.6312 18.225 19.6406ZM23.4313 27.875C23.4844 27.3969 23.2188 26.8656 22.7407 26.6C22.3157 26.3344 21.7313 26.3344 21.3063 26.6C20.8282 26.8656 20.5625 27.3969 20.6157 27.875C20.5625 28.4062 20.8282 28.9375 21.3063 29.2031C21.7313 29.4687 22.3157 29.4687 22.7407 29.2031C23.2188 28.9375 23.4844 28.4062 23.4313 27.875Z" fill="#EFFEFB"/>
</svg>
