<svg width="216" height="72" viewBox="0 0 216 72" fill="none" xmlns="http://www.w3.org/2000/svg">
<path d="M72.6918 2.5H73.9365C73.982 2.5 74.0161 2.52263 74.0332 2.56222L76.7842 8.69373C76.824 8.77858 76.9433 8.77858 76.9831 8.69373L79.7455 2.56222C79.7626 2.52263 79.8023 2.5 79.8421 2.5H81.0869C81.1494 2.5 81.1949 2.55091 81.1949 2.60747V10.4585C81.1949 10.5207 81.1437 10.566 81.0869 10.566H80.0126C79.9501 10.566 79.9047 10.5151 79.9047 10.4585V5.00012H79.8478L77.3867 10.5038C77.3696 10.5434 77.3298 10.566 77.29 10.566H76.4716C76.4261 10.566 76.392 10.5434 76.3693 10.5038L73.9195 5.00012H73.8626V10.4585C73.8626 10.5207 73.8115 10.566 73.7547 10.566H72.6804C72.6179 10.566 72.5724 10.5151 72.5724 10.4585V2.60747C72.5724 2.54525 72.6236 2.5 72.6804 2.5H72.6918Z" fill="white"/>
<path d="M87.1232 2.50012H91.3805C91.443 2.50012 91.4885 2.55103 91.4885 2.60759V3.58614C91.4885 3.64836 91.4373 3.69361 91.3805 3.69361H88.4135C88.3509 3.69361 88.3055 3.74452 88.3055 3.80108V5.82041C88.3055 5.88263 88.3566 5.92788 88.4135 5.92788H90.8916C90.9542 5.92788 90.9996 5.97879 90.9996 6.03535V6.97997C90.9996 7.04219 90.9485 7.08744 90.8916 7.08744H88.4135C88.3509 7.08744 88.3055 7.13835 88.3055 7.19491V9.25949C88.3055 9.32171 88.3566 9.36696 88.4135 9.36696H91.4828C91.5453 9.36696 91.5908 9.41786 91.5908 9.47443V10.453C91.5908 10.5152 91.5396 10.5605 91.4828 10.5605H87.1232C87.0607 10.5605 87.0152 10.5095 87.0152 10.453V2.60759C87.0152 2.54537 87.0664 2.50012 87.1232 2.50012ZM90.0334 0H90.8234C90.9087 0 90.9598 0.0961584 90.9144 0.164035L89.9197 1.71954C89.897 1.75348 89.8629 1.77045 89.8287 1.77045H89.0671C88.9818 1.77045 88.9307 1.67994 88.9762 1.60641L89.9367 0.0509074C89.9538 0.0169691 89.9936 0 90.0277 0L90.0334 0Z" fill="white"/>
<path d="M98.8776 3.6935H97.053C96.9905 3.6935 96.945 3.64259 96.945 3.58602V2.60747C96.945 2.54525 96.9962 2.5 97.053 2.5H102.214C102.277 2.5 102.322 2.55091 102.322 2.60747V3.58602C102.322 3.64824 102.271 3.6935 102.214 3.6935H100.389C100.327 3.6935 100.281 3.7444 100.281 3.80097V10.4585C100.281 10.5207 100.23 10.566 100.173 10.566H99.0992C99.0367 10.566 98.9912 10.5151 98.9912 10.4585V3.80097C98.9912 3.73875 98.9401 3.6935 98.8832 3.6935H98.8776Z" fill="white"/>
<path d="M107.159 6.53284C107.159 4.05535 109.063 2.38672 111.303 2.38672C113.542 2.38672 115.446 4.05535 115.446 6.53284C115.446 9.01033 113.531 10.679 111.303 10.679C109.074 10.679 107.159 9.01033 107.159 6.53284ZM111.303 9.45153C112.809 9.45153 114.122 8.30329 114.122 6.53284C114.122 4.7624 112.809 3.61415 111.303 3.61415C109.796 3.61415 108.483 4.7624 108.483 6.53284C108.483 8.30329 109.796 9.45153 111.303 9.45153Z" fill="white"/>
<path d="M121.158 2.60747C121.158 2.54525 121.21 2.5 121.266 2.5H123.853C126.16 2.5 127.803 4.14601 127.803 6.533C127.803 8.91999 126.16 10.566 123.853 10.566H121.266C121.204 10.566 121.158 10.5151 121.158 10.4585V2.60747ZM123.807 9.34987C125.529 9.34987 126.467 8.21294 126.467 6.533C126.467 4.85305 125.529 3.71612 123.807 3.71612H122.557C122.494 3.71612 122.449 3.76703 122.449 3.82359V9.2424C122.449 9.30462 122.5 9.34987 122.557 9.34987H123.807Z" fill="white"/>
<path d="M133.271 6.53284C133.271 4.05535 135.175 2.38672 137.414 2.38672C139.654 2.38672 141.558 4.05535 141.558 6.53284C141.558 9.01033 139.643 10.679 137.414 10.679C135.186 10.679 133.271 9.01033 133.271 6.53284ZM137.414 9.45153C138.921 9.45153 140.234 8.30329 140.234 6.53284C140.234 4.7624 138.921 3.61415 137.414 3.61415C135.908 3.61415 134.595 4.7624 134.595 6.53284C134.595 8.30329 135.908 9.45153 137.414 9.45153Z" fill="white"/>
<path d="M23.1508 21.6133H17.3702C17.0917 21.6133 16.8473 21.783 16.745 22.0432L12.5503 33.4238C12.3343 33.9951 11.5215 33.9951 11.3055 33.4238L7.07667 22.0432C6.98005 21.7886 6.72995 21.6133 6.45713 21.6133H0.665219C0.193454 21.6133 -0.130529 22.0941 0.0513566 22.5296L8.42376 43.3168C8.52607 43.5657 8.77048 43.7241 9.03762 43.7241H14.7727C15.0455 43.7241 15.2842 43.5657 15.3866 43.3168L23.759 22.5296C23.9408 22.0941 23.6225 21.6133 23.1451 21.6133H23.1508Z" fill="white"/>
<path d="M35.0586 21.6133C29.4997 21.6133 24.0716 25.5049 24.0716 32.7111C24.0716 36.9534 26.0382 40.0983 28.9199 41.9197C30.358 41.3088 32.012 40.9694 33.8138 40.9694C36.5478 40.9694 38.6792 41.7556 40.2991 42.8021C41.7201 42.2138 42.8967 41.371 43.7947 40.3924C44.0278 40.1379 44.0278 39.742 43.7947 39.4874L41.453 37.0043C41.2427 36.7837 40.9016 36.7271 40.6402 36.8798C39.2192 37.7283 37.7868 37.9941 36.2238 37.9941C34.3651 37.9941 32.8589 37.5077 31.8585 36.5348C31.4436 36.1275 31.7619 35.4148 32.3417 35.4148H44.9827C45.318 35.4148 45.6022 35.1716 45.642 34.8379C46.7959 25.1994 40.4014 21.6133 35.0756 21.6133H35.0586ZM38.3155 30.4203H31.8699C31.3356 30.4203 31.0173 29.8094 31.3186 29.3738C32.2223 28.1011 33.6774 27.5129 35.1381 27.5129C36.5989 27.5129 38.1222 28.1125 38.8952 29.4304C39.151 29.8716 38.8213 30.4259 38.3155 30.4259V30.4203Z" fill="white"/>
<path d="M61.557 21.6133C59.4141 21.6133 57.7374 22.292 56.5153 23.3611C56.1118 23.7231 55.4695 23.4459 55.4695 22.9086V22.0545C55.4695 21.8113 55.2706 21.6133 55.0262 21.6133H48.7909C48.5465 21.6133 48.3476 21.8113 48.3476 22.0545V43.0679C48.3476 43.4299 48.6431 43.7297 49.0126 43.7297H54.7988C55.1683 43.7297 55.4695 43.4356 55.4695 43.0679V32.0154C55.4695 29.8037 56.4983 27.8805 58.8855 27.8805C61.2728 27.8805 62.3811 29.8037 62.3811 32.0154V43.0679C62.3811 43.4299 62.6767 43.7297 63.0518 43.7297H68.8381C69.2018 43.7297 69.5031 43.4356 69.5031 43.0679V30.7879C69.5031 24.2774 65.8824 21.6133 61.5627 21.6133H61.557Z" fill="white"/>
<path d="M94.7226 16.5789H88.9364C88.5726 16.5789 88.2714 16.873 88.2714 17.2464V24.034H88.1463C87.9815 23.6663 85.9637 21.6187 82.218 21.6187C77.4435 21.6187 72.0949 25.2218 72.0949 32.6769C72.0949 40.132 77.4492 43.7295 82.218 43.7295C85.958 43.7295 87.9758 41.6819 88.1463 41.3142H88.2714V43.0677C88.2714 43.4297 88.5669 43.7295 88.9364 43.7295H94.7226C95.0921 43.7295 95.3933 43.4354 95.3933 43.0677V17.2407C95.3933 16.873 95.0977 16.5732 94.7226 16.5732V16.5789ZM83.747 37.4622C81.2745 37.4622 79.0918 35.6635 79.0918 32.6713C79.0918 29.6791 81.2745 27.8803 83.747 27.8803C86.2195 27.8803 88.4362 29.6395 88.4362 32.6713C88.4362 35.7031 86.299 37.4622 83.747 37.4622Z" fill="white"/>
<path d="M120.607 21.6131H114.821C114.451 21.6131 114.15 21.9072 114.15 22.2805V24.0283H114.025C113.86 23.6607 111.848 21.6131 108.097 21.6131C103.322 21.6131 97.9738 25.2162 97.9738 32.6713C97.9738 40.1264 103.322 43.7238 108.097 43.7238C111.843 43.7238 113.86 41.6762 114.025 41.3086H114.15V43.062C114.15 43.4241 114.446 43.7238 114.821 43.7238H120.607C120.977 43.7238 121.278 43.4297 121.278 43.062V22.2749C121.278 21.9072 120.982 21.6074 120.607 21.6074V21.6131ZM109.626 37.4622C107.153 37.4622 104.976 35.6635 104.976 32.6713C104.976 29.6791 107.153 27.8803 109.626 27.8803C112.098 27.8803 114.321 29.6395 114.321 32.6713C114.321 35.7031 112.184 37.4622 109.626 37.4622Z" fill="white"/>
<path d="M139.802 37.3548C139.358 37.434 138.949 37.4679 138.648 37.4679C136.63 37.4679 136.056 36.2348 136.056 35.2449V28.8023C136.056 28.3951 136.386 28.0613 136.795 28.0613H139.842C140.251 28.0613 140.58 27.7276 140.58 27.3204V22.3597C140.58 21.9468 140.251 21.6131 139.842 21.6131H136.795C136.386 21.6131 136.056 21.3246 136.056 20.9173V17.3199C136.056 16.907 135.726 16.5732 135.317 16.5732H129.679C129.269 16.5732 128.94 16.907 128.94 17.3199V20.9173C128.94 21.3246 128.61 21.6131 128.201 21.6131H126.547C126.138 21.6131 125.802 21.9468 125.802 22.3597V27.3204C125.802 27.7276 126.138 28.0613 126.547 28.0613H128.201C128.61 28.0613 128.94 28.3951 128.94 28.8023V36.3196C128.94 41.6762 132.026 43.7352 136.306 43.7352C137.75 43.7352 139.455 43.5032 140.387 42.7962C140.563 42.6604 140.671 42.4398 140.671 42.2079V38.0901C140.671 37.6319 140.256 37.2756 139.807 37.3604L139.802 37.3548Z" fill="white"/>
<path d="M153.585 21.6133C147.952 21.6133 142.149 25.42 142.149 32.6715C142.149 39.923 147.952 43.7241 153.585 43.7241C159.218 43.7241 164.981 39.9173 164.981 32.6715C164.981 25.4257 159.178 21.6133 153.585 21.6133ZM153.585 37.3833C151.113 37.3833 149.14 35.4997 149.14 32.6715C149.14 29.8433 151.113 27.9597 153.585 27.9597C156.058 27.9597 157.99 29.8433 157.99 32.6715C157.99 35.4997 156.018 37.3833 153.585 37.3833Z" fill="white"/>
<path d="M189.104 16.5791H183.466C183.056 16.5791 182.727 16.9128 182.727 17.3201V24.0342H182.602C182.437 23.6665 180.425 21.6189 176.673 21.6189C171.899 21.6189 166.55 25.222 166.55 32.6771C166.55 40.1322 171.899 43.7297 176.673 43.7297C180.419 43.7297 182.437 41.6821 182.602 41.3144H182.727V42.9944C182.727 43.4016 183.056 43.7297 183.466 43.7297H189.104C189.513 43.7297 189.843 43.4016 189.843 42.9944V17.3201C189.843 16.9128 189.513 16.5791 189.104 16.5791ZM178.197 37.4624C175.724 37.4624 173.547 35.6637 173.547 32.6715C173.547 29.6793 175.724 27.8805 178.197 27.8805C180.669 27.8805 182.891 29.6397 182.891 32.6715C182.891 35.7033 180.754 37.4624 178.197 37.4624Z" fill="white"/>
<path d="M203.876 21.6133C198.238 21.6133 192.435 25.42 192.435 32.6715C192.435 39.923 198.238 43.7241 203.876 43.7241C209.515 43.7241 215.273 39.9173 215.273 32.6715C215.273 25.4257 209.469 21.6133 203.876 21.6133ZM203.876 37.3833C201.404 37.3833 199.432 35.4997 199.432 32.6715C199.432 29.8433 201.41 27.9597 203.876 27.9597C206.343 27.9597 208.282 29.8433 208.282 32.6715C208.282 35.4997 206.304 37.3833 203.876 37.3833Z" fill="white"/>
<path d="M153.46 44.8271H147.68C147.31 44.8271 147.009 45.1269 147.009 45.4946V52.2879H146.884C146.719 51.9202 144.707 49.8726 140.956 49.8726C138.403 49.8726 135.692 50.9021 133.714 53.0006C135.573 55.1274 136.545 57.8312 136.545 60.9308C136.545 64.0305 135.573 66.7343 133.714 68.8611C135.687 70.9596 138.403 71.9891 140.956 71.9891C144.701 71.9891 146.719 69.9415 146.884 69.5738H147.009V70.9144C147.009 71.282 147.31 71.5818 147.68 71.5818H153.46C153.83 71.5818 154.131 71.282 154.131 70.9144V45.5003C154.131 45.1326 153.835 44.8328 153.46 44.8328V44.8271ZM142.485 65.7218C140.012 65.7218 137.835 63.9231 137.835 60.9308C137.835 57.9386 140.012 56.1399 142.485 56.1399C144.957 56.1399 147.179 57.899 147.179 60.9308C147.179 63.9627 145.042 65.7218 142.485 65.7218Z" fill="white"/>
<path d="M164.203 49.8726H158.422C158.053 49.8726 157.752 50.1668 157.752 50.5401V70.9087C157.752 71.2764 158.053 71.5761 158.422 71.5761H164.203C164.572 71.5761 164.873 71.2764 164.873 70.9087V50.5401C164.873 50.1724 164.578 49.8726 164.203 49.8726ZM164.203 44.8271H158.422C158.053 44.8271 157.752 45.1269 157.752 45.4946V47.9382C157.752 48.3058 158.053 48.6056 158.422 48.6056H164.203C164.572 48.6056 164.873 48.3115 164.873 47.9382V45.4946C164.873 45.1269 164.578 44.8271 164.203 44.8271Z" fill="white"/>
<path d="M190.087 49.873H184.307C183.937 49.873 183.636 50.1672 183.636 50.5405V52.2883H183.511C183.346 51.9207 181.328 49.873 177.583 49.873C172.808 49.873 167.46 53.4762 167.46 60.9313C167.46 68.3864 172.808 71.9838 177.583 71.9838C181.323 71.9838 183.341 69.9362 183.511 69.5685H183.636V70.9091C183.636 71.2768 183.932 71.5766 184.307 71.5766H190.087C190.457 71.5766 190.758 71.2768 190.758 70.9091V50.5405C190.758 50.1728 190.457 49.873 190.087 49.873ZM179.112 65.7222C176.639 65.7222 174.457 63.9235 174.457 60.9313C174.457 57.939 176.639 56.1403 179.112 56.1403C181.584 56.1403 183.801 57.8994 183.801 60.9313C183.801 63.9631 181.664 65.7222 179.112 65.7222Z" fill="white"/>
<path d="M23.7931 64.398L28.4652 62.2373C28.8063 62.0789 29.2041 62.2147 29.386 62.5427C30.2216 64.0473 31.5118 65.518 33.7683 65.518C35.4564 65.518 36.9797 64.6978 36.9797 62.735C36.9797 61.3436 36.3204 60.6478 33.7285 59.624L31.9154 58.9283C28.1299 57.4124 24.3046 55.3252 24.3046 50.3702C24.3046 45.4152 28.6642 42.1006 33.8081 42.1006C38.6451 42.1006 41.7599 44.8439 43.3287 47.7061C43.5162 48.0454 43.3912 48.4697 43.0558 48.662L38.8782 51.0263C38.5542 51.2073 38.1506 51.1112 37.9403 50.8057C36.7581 49.0919 35.4792 48.447 34.098 48.447C32.5747 48.447 31.4209 49.1032 31.4209 50.4946C31.4209 51.558 32.0404 52.4178 35.0017 53.5661L36.9797 54.3466C42.3681 56.5187 44.5109 58.934 44.5109 62.8255C44.5109 69.0928 38.8725 72.0002 33.8934 72.0002C28.9143 72.0002 24.7764 69.2229 23.4179 65.2861C23.2986 64.941 23.4577 64.5677 23.7931 64.415V64.398Z" fill="white"/>
<path d="M46.074 60.9252C46.074 53.4701 51.4226 49.867 56.197 49.867C59.9427 49.867 61.9605 51.9146 62.1254 52.2823H62.2504V50.5684C62.2504 50.1781 62.5687 49.8613 62.9609 49.8613H68.6619C69.0541 49.8613 69.3724 50.1781 69.3724 50.5684V70.8634C69.3724 71.2537 69.0541 71.5705 68.6619 71.5705H62.9609C62.5687 71.5705 62.2504 71.2537 62.2504 70.8634V69.5625H62.1254C61.9605 69.9301 59.9427 71.9778 56.197 71.9778C51.4226 71.9778 46.074 68.3746 46.074 60.9195V60.9252ZM57.7203 65.7161C60.2724 65.7161 62.4096 63.957 62.4096 60.9252C62.4096 57.8934 60.2724 56.1342 57.7203 56.1342C55.1683 56.1342 53.0709 57.9386 53.0709 60.9252C53.0709 63.9118 55.2535 65.7161 57.7203 65.7161Z" fill="white"/>
<path d="M73.6978 49.8721H79.3988C79.791 49.8721 80.1093 50.1888 80.1093 50.5791V51.1843C80.1093 51.7217 80.7459 51.9932 81.1494 51.6369C82.3715 50.5621 84.0539 49.8777 86.2024 49.8777C90.5222 49.8777 94.1429 52.5419 94.1429 59.0524V70.8798C94.1429 71.2701 93.8246 71.5869 93.4324 71.5869H87.7314C87.3392 71.5869 87.0209 71.2701 87.0209 70.8798V60.2798C87.0209 58.0682 85.9523 56.145 83.5253 56.145C81.0983 56.145 80.1093 58.0682 80.1093 60.2798V70.8798C80.1093 71.2701 79.791 71.5869 79.3988 71.5869H73.6978C73.3056 71.5869 72.9873 71.2701 72.9873 70.8798V50.5848C72.9873 50.1945 73.3056 49.8777 73.6978 49.8777V49.8721Z" fill="white"/>
<path d="M99.3664 64.4489V56.5526C99.3664 56.1623 99.0481 55.8456 98.6559 55.8456H96.82C96.4278 55.8456 96.1095 55.5288 96.1095 55.1385V50.5851C96.1095 50.1948 96.4278 49.8781 96.82 49.8781H98.6559C99.0481 49.8781 99.3664 49.5613 99.3664 49.171V45.5283C99.3664 45.138 99.6847 44.8213 100.077 44.8213H105.778C106.17 44.8213 106.488 45.138 106.488 45.5283V49.171C106.488 49.5613 106.807 49.8781 107.199 49.8781H110.308C110.7 49.8781 111.018 50.1948 111.018 50.5851V55.1385C111.018 55.5288 110.7 55.8456 110.308 55.8456H107.199C106.807 55.8456 106.488 56.1623 106.488 56.5526V63.3855C106.488 64.3697 107.062 65.5972 109.08 65.5972C109.387 65.5972 109.808 65.5632 110.262 65.4784C110.717 65.3935 111.098 65.7386 111.098 66.1798V70.3202C111.098 70.5352 111.001 70.7445 110.825 70.8802C109.899 71.5873 108.182 71.8248 106.733 71.8248C102.453 71.8248 99.3664 69.7772 99.3664 64.4546V64.4489Z" fill="white"/>
<path d="M112.581 60.9254C112.581 53.6739 118.385 49.8672 124.023 49.8672C129.662 49.8672 135.419 53.6739 135.419 60.9254C135.419 68.1769 129.616 71.9836 124.023 71.9836C118.43 71.9836 112.581 68.1769 112.581 60.9254ZM124.023 65.6372C126.45 65.6372 128.428 63.7536 128.428 60.9254C128.428 58.0972 126.45 56.2136 124.023 56.2136C121.596 56.2136 119.578 58.0972 119.578 60.9254C119.578 63.7536 121.556 65.6372 124.023 65.6372Z" fill="white"/>
</svg>
