<svg width="36" height="36" viewBox="0 0 36 36" fill="none" xmlns="http://www.w3.org/2000/svg">
<path d="M25.3125 10.5938C27.2812 12.5625 28.5 15.1406 28.5 17.9531C28.5 23.6719 23.7188 28.3594 17.9531 28.3594C16.2188 28.3594 14.5312 27.8906 12.9844 27.0938L7.5 28.5L8.95312 23.1094C8.0625 21.5625 7.54688 19.7812 7.54688 17.9062C7.54688 12.1875 12.2344 7.5 17.9531 7.5C20.7656 7.5 23.3906 8.625 25.3125 10.5938ZM17.9531 26.5781C22.7344 26.5781 26.7188 22.6875 26.7188 17.9531C26.7188 15.6094 25.7344 13.4531 24.0938 11.8125C22.4531 10.1719 20.2969 9.28125 18 9.28125C13.2188 9.28125 9.32812 13.1719 9.32812 17.9062C9.32812 19.5469 9.79688 21.1406 10.6406 22.5469L10.875 22.875L9.98438 26.0625L13.2656 25.1719L13.5469 25.3594C14.9062 26.1562 16.4062 26.5781 17.9531 26.5781ZM22.7344 20.1094C22.9688 20.25 23.1562 20.2969 23.2031 20.4375C23.2969 20.5312 23.2969 21.0469 23.0625 21.6562C22.8281 22.2656 21.7969 22.8281 21.3281 22.875C20.4844 23.0156 19.8281 22.9688 18.1875 22.2188C15.5625 21.0938 13.875 18.4688 13.7344 18.3281C13.5938 18.1406 12.7031 16.9219 12.7031 15.6094C12.7031 14.3438 13.3594 13.7344 13.5938 13.4531C13.8281 13.1719 14.1094 13.125 14.2969 13.125C14.4375 13.125 14.625 13.125 14.7656 13.125C14.9531 13.125 15.1406 13.0781 15.375 13.5938C15.5625 14.1094 16.125 15.375 16.1719 15.5156C16.2188 15.6562 16.2656 15.7969 16.1719 15.9844C15.7031 16.9688 15.1406 16.9219 15.4219 17.3906C16.4531 19.125 17.4375 19.7344 18.9844 20.4844C19.2188 20.625 19.3594 20.5781 19.5469 20.4375C19.6875 20.25 20.2031 19.6406 20.3438 19.4062C20.5312 19.125 20.7188 19.1719 20.9531 19.2656C21.1875 19.3594 22.4531 19.9688 22.7344 20.1094Z" fill="white"/>
</svg>
